<?xml version="1.0" standalone="no"?>
<!DOCTYPE svg PUBLIC "-//W3C//DTD SVG 20010904//EN"
 "http://www.w3.org/TR/2001/REC-SVG-20010904/DTD/svg10.dtd">
<svg version="1.0" xmlns="http://www.w3.org/2000/svg"
 width="1024.000000pt" height="1024.000000pt" viewBox="0 0 1024.000000 1024.000000"
 preserveAspectRatio="xMidYMid meet">
<metadata>
Created by potrace 1.14, written by Peter Selinger 2001-2017
</metadata>
<g transform="translate(0.000000,1024.000000) scale(0.100000,-0.100000)"
fill="#000000" stroke="none">
<path d="M4949 10235 c-2 -1 -29 -6 -60 -9 -31 -4 -67 -9 -80 -11 -13 -3 -41
-7 -63 -10 -21 -3 -42 -8 -47 -11 -5 -3 -22 -7 -37 -10 -15 -3 -52 -12 -82
-21 -69 -21 -62 -19 -80 -26 -8 -3 -45 -17 -81 -31 -112 -41 -294 -135 -311
-160 -4 -6 -8 -7 -8 -3 0 5 -18 -5 -39 -22 -21 -17 -42 -31 -46 -31 -7 0 -145
-111 -195 -157 -14 -13 -28 -23 -32 -23 -5 0 -8 -4 -8 -9 0 -5 -19 -29 -43
-53 -65 -65 -157 -174 -157 -186 0 -6 -4 -12 -9 -14 -25 -9 -175 -271 -226
-393 -21 -52 -64 -174 -70 -200 -3 -11 -13 -56 -24 -101 -11 -45 -22 -99 -25
-120 -2 -21 -5 -39 -7 -39 -2 0 -6 -36 -13 -145 -10 -136 -12 -230 -6 -230 3
0 3 -27 0 -60 -3 -33 -3 -60 0 -60 3 0 5 -29 5 -65 0 -36 -2 -65 -5 -65 -3 0
-3 -27 0 -61 3 -33 2 -63 -2 -65 -5 -3 -6 -10 -3 -15 6 -9 7 -74 2 -317 -1
-72 0 -132 3 -132 3 0 3 -27 0 -60 -3 -33 -3 -60 0 -60 3 0 3 -27 0 -60 -3
-33 -3 -60 0 -60 3 0 3 -27 0 -61 -3 -33 -2 -63 2 -65 5 -3 6 -9 3 -14 -4 -6
-6 -76 -4 -140 1 -24 0 -112 -2 -150 -1 -19 -1 -42 0 -50 0 -8 0 -37 0 -65 0
-27 0 -54 0 -60 0 -5 0 -53 1 -105 0 -52 0 -124 1 -160 0 -36 0 -72 0 -80 0
-8 0 -44 0 -80 1 -36 1 -72 0 -80 0 -8 0 -44 0 -80 0 -36 0 -72 0 -80 0 -8 0
-64 0 -125 0 -60 0 -117 0 -125 -1 -8 0 -37 0 -65 1 -27 0 -57 0 -65 -1 -8 -1
-35 0 -60 1 -25 1 -52 0 -60 -1 -8 -1 -35 0 -60 1 -25 1 -52 0 -60 -3 -44 6
-323 13 -365 8 -52 25 -149 32 -180 38 -182 123 -398 216 -550 10 -16 21 -38
24 -47 4 -10 10 -18 15 -18 5 0 9 -5 9 -10 0 -9 63 -101 94 -137 6 -7 22 -27
36 -45 51 -67 238 -245 322 -309 108 -80 299 -195 358 -214 3 -1 26 -11 52
-23 26 -11 69 -28 95 -37 26 -8 55 -18 63 -22 8 -3 20 -7 25 -8 6 0 17 -4 25
-8 60 -26 296 -67 402 -70 43 -1 78 -6 78 -10 0 -5 5 -5 10 -2 6 3 65 8 133
10 67 2 136 6 152 9 44 7 105 16 144 22 18 2 37 7 42 10 5 3 22 7 37 10 15 3
52 12 82 21 69 21 62 19 80 26 24 10 134 51 140 52 27 4 241 123 252 139 4 6
8 7 8 3 0 -5 18 5 39 22 21 17 42 31 46 31 32 0 323 278 411 392 59 77 124
175 124 187 0 6 4 11 9 11 5 0 11 8 14 18 4 9 18 36 32 60 14 23 25 49 25 56
0 8 4 16 9 18 4 2 24 44 43 93 20 50 39 99 43 110 5 11 9 23 10 28 2 4 3 8 5
10 1 2 6 20 13 50 1 6 6 18 10 24 5 7 6 13 3 13 -2 0 0 15 5 33 12 38 17 62
24 102 3 17 8 41 10 55 19 91 40 610 25 610 -3 0 -3 27 0 60 3 33 3 60 0 60
-3 0 -3 27 0 60 3 33 3 60 0 60 -3 0 -3 27 0 61 3 33 2 63 -2 65 -5 3 -6 9 -3
14 4 6 6 76 4 140 -1 24 0 112 2 150 1 19 1 42 0 50 0 8 0 38 0 65 0 28 0 55
0 60 0 6 0 53 -1 105 0 52 0 124 -1 160 0 36 0 72 0 80 0 8 0 44 0 80 -1 36
-1 72 0 80 0 8 0 44 0 80 0 36 0 72 0 80 0 8 0 65 0 125 0 61 0 117 0 125 1 8
0 38 0 65 -1 28 0 57 0 65 1 8 1 35 0 60 -1 25 -1 52 0 60 1 8 1 35 0 60 -1
25 -1 52 0 60 1 8 1 35 0 60 -1 25 -1 52 0 60 1 8 1 35 0 60 -1 25 -1 52 0 60
1 8 1 35 0 60 -1 25 -1 52 0 60 1 8 1 35 0 60 -1 25 -1 51 0 58 3 32 3 33 1
187 -1 84 -10 304 -13 336 -11 90 -48 271 -64 309 -7 17 -11 29 -16 50 -11 43
-88 232 -106 260 -8 14 -16 27 -16 30 -1 10 -69 127 -102 173 -18 26 -33 51
-33 56 0 5 -3 11 -7 13 -5 2 -21 21 -37 43 -75 101 -268 292 -373 369 -180
132 -399 246 -568 295 -98 29 -185 50 -240 60 -33 5 -76 13 -95 16 -37 7 -415
16 -421 10z"/>
<path d="M1998 6395 c-2 -2 -15 -6 -28 -8 -42 -8 -113 -39 -147 -64 -17 -12
-34 -23 -37 -23 -10 0 -76 -73 -105 -115 -48 -69 -71 -138 -76 -228 -2 -31 -7
-62 -10 -67 -3 -6 -2 -10 4 -10 6 0 6 -11 1 -30 -5 -16 -6 -30 -2 -30 8 0 6
-86 -3 -99 -3 -5 -1 -12 4 -15 6 -4 6 -18 1 -36 -5 -16 -5 -32 0 -35 5 -3 5
-19 0 -35 -5 -17 -5 -32 0 -35 5 -3 6 -15 0 -29 -4 -12 -4 -29 0 -36 5 -8 6
-18 3 -23 -8 -13 -9 -77 -1 -90 3 -6 3 -18 -2 -27 -5 -9 -5 -22 0 -30 5 -8 5
-21 0 -30 -5 -9 -5 -22 0 -30 5 -8 5 -21 0 -30 -5 -9 -5 -22 0 -30 5 -8 5 -21
0 -30 -5 -9 -5 -22 0 -29 4 -8 4 -27 0 -42 -5 -16 -6 -29 -2 -29 4 0 7 -44 8
-98 0 -53 4 -131 9 -172 4 -41 8 -92 9 -112 0 -21 3 -38 6 -38 3 0 5 -15 6
-33 1 -17 4 -48 8 -67 4 -19 9 -44 11 -55 3 -23 16 -91 22 -120 3 -11 6 -29 8
-40 18 -106 151 -521 193 -601 5 -11 24 -50 42 -89 46 -100 130 -265 140 -275
3 -3 13 -21 24 -40 58 -109 272 -410 365 -514 117 -131 217 -232 315 -320 107
-96 123 -109 231 -191 55 -41 105 -78 110 -83 24 -18 206 -132 273 -171 143
-83 407 -206 517 -241 22 -7 45 -16 50 -20 6 -5 12 -8 15 -8 5 1 73 -19 100
-29 43 -17 288 -81 340 -89 19 -3 51 -10 71 -15 20 -5 56 -11 80 -14 61 -7 78
-10 84 -17 3 -3 6 -32 5 -64 0 -65 -1 -159 -1 -244 0 -30 0 -63 0 -72 0 -68 0
-238 1 -260 l0 -27 -157 -1 c-87 0 -165 -1 -173 -1 -8 0 -62 0 -120 0 -58 0
-114 0 -125 0 -11 0 -67 0 -125 0 -58 0 -109 0 -115 0 -5 0 -44 0 -85 0 -151
2 -236 -19 -325 -80 -42 -29 -115 -95 -115 -105 0 -3 -11 -20 -23 -37 -24 -32
-53 -99 -65 -147 -11 -43 -6 -230 7 -243 6 -6 11 -18 11 -26 0 -21 38 -97 56
-111 7 -7 14 -16 14 -21 0 -20 159 -149 184 -149 3 0 17 -5 33 -11 15 -7 37
-14 48 -17 31 -8 3075 -13 3088 -5 7 4 21 9 32 10 31 4 96 34 140 64 42 29
115 95 115 105 0 3 11 20 23 37 24 32 54 99 65 147 13 54 6 205 -13 260 -44
131 -156 252 -270 291 -22 7 -45 16 -50 20 -21 15 -137 20 -442 19 -172 0
-321 -1 -330 -1 -15 0 -76 0 -168 -1 -11 0 -50 1 -88 2 l-67 2 1 78 c1 43 -2
83 -5 89 -4 6 -4 11 1 11 4 0 7 37 6 82 -2 79 -3 185 -2 218 0 8 0 53 -1 99
-1 78 2 95 18 97 13 0 117 16 132 19 8 2 29 6 45 9 17 3 41 8 55 11 14 3 36 8
50 11 14 3 43 10 65 16 22 5 47 12 55 13 32 7 256 76 275 85 11 5 57 23 102
39 45 17 90 34 100 40 10 5 41 19 68 31 77 33 96 43 158 77 31 18 57 30 57 27
0 -3 13 4 29 15 16 12 34 21 40 21 6 0 11 3 11 8 0 4 13 13 29 20 68 30 354
228 465 322 76 64 115 99 170 150 114 107 136 130 136 141 0 5 5 7 10 4 6 -3
10 -3 10 2 0 4 17 26 38 49 78 86 122 135 122 139 0 2 9 14 20 27 36 43 85
105 100 128 8 13 30 43 48 67 17 24 32 48 32 53 0 6 4 10 8 10 5 0 15 12 23
27 8 15 30 53 50 83 84 129 190 340 262 520 50 125 50 124 53 138 1 8 6 21 10
30 4 9 8 19 9 22 1 3 6 21 12 40 30 92 55 177 59 200 3 14 10 43 16 65 6 22
13 47 14 55 3 18 16 79 21 100 1 8 5 31 8 50 3 19 7 44 9 55 20 103 37 278 41
408 1 54 5 100 8 103 3 4 2 16 -2 28 -5 11 -5 30 -1 41 4 11 4 27 -1 36 -4 8
-4 21 1 29 5 8 5 21 0 30 -5 9 -5 22 0 29 4 8 4 27 0 42 -5 16 -5 29 0 29 5 0
5 13 0 30 -5 17 -5 30 0 30 5 0 5 13 0 30 -5 17 -5 30 0 30 5 0 5 13 0 30 -5
17 -5 30 0 30 5 0 5 13 0 30 -5 17 -6 30 -2 30 4 0 7 16 7 35 0 19 -3 35 -7
35 -4 0 -3 14 2 30 5 17 5 30 0 30 -4 0 -6 8 -4 18 7 25 10 232 4 232 -3 0 -5
10 -6 23 -1 34 -11 79 -25 112 -6 17 -13 35 -15 42 -8 40 -100 146 -165 190
-89 60 -156 78 -284 77 -85 -1 -197 -28 -214 -51 -3 -5 -18 -14 -33 -22 -100
-51 -203 -217 -213 -344 -2 -21 -5 -41 -8 -44 -3 -2 -1 -18 3 -34 5 -16 5 -29
0 -29 -5 0 -5 -13 0 -30 5 -17 5 -30 0 -30 -5 0 -5 -13 0 -30 5 -17 5 -30 0
-30 -5 0 -5 -13 0 -30 5 -17 5 -30 0 -30 -5 0 -5 -13 0 -30 5 -17 5 -30 0 -30
-5 0 -5 -13 0 -30 5 -17 5 -30 0 -30 -5 0 -5 -13 0 -30 5 -17 5 -30 0 -30 -5
0 -5 -13 0 -30 5 -17 5 -30 0 -30 -5 0 -5 -13 0 -30 5 -17 5 -30 0 -30 -5 0
-5 -13 0 -30 5 -17 5 -30 0 -30 -5 0 -5 -13 0 -29 4 -15 4 -34 0 -42 -5 -7 -5
-20 0 -29 5 -9 5 -22 0 -30 -5 -8 -5 -21 0 -31 5 -9 7 -18 5 -21 -3 -3 -7 -67
-10 -144 -3 -76 -7 -150 -10 -163 -2 -13 -7 -47 -10 -75 -2 -28 -7 -62 -10
-76 -4 -14 -8 -36 -11 -50 -2 -14 -9 -45 -14 -70 -6 -25 -12 -54 -14 -65 -12
-60 -87 -291 -123 -375 -3 -8 -5 -18 -5 -22 1 -5 -3 -8 -8 -8 -6 0 -10 -6 -10
-12 0 -15 -83 -180 -128 -256 -18 -29 -32 -57 -32 -62 0 -6 -4 -10 -10 -10 -5
0 -10 -7 -10 -15 0 -8 -4 -15 -8 -15 -5 0 -13 -10 -19 -22 -14 -31 -139 -196
-205 -272 -78 -89 -159 -168 -303 -295 -19 -17 -163 -123 -201 -149 -32 -21
-119 -76 -145 -91 -39 -23 -276 -141 -284 -141 -4 0 -21 -7 -39 -15 -87 -42
-354 -120 -476 -140 -25 -4 -54 -9 -65 -11 -75 -15 -204 -27 -302 -28 -40 -1
-73 -3 -73 -6 0 -3 -21 -4 -47 -3 -27 1 -48 2 -48 3 0 1 -38 3 -85 5 -106 4
-186 14 -340 40 -115 20 -443 116 -460 135 -3 3 -9 5 -15 6 -14 0 -93 36 -190
86 -44 22 -93 47 -110 56 -16 8 -38 22 -47 30 -10 8 -18 11 -18 6 0 -5 -4 -4
-8 1 -4 6 -41 32 -82 59 -283 185 -539 442 -729 732 -72 110 -78 120 -143 244
-40 76 -145 326 -152 361 -2 8 -6 21 -9 29 -10 25 -58 211 -67 265 -5 28 -12
61 -15 75 -3 14 -7 45 -10 70 -2 25 -6 60 -10 77 -3 18 -7 82 -9 143 -3 60 -7
113 -10 118 -2 4 -1 14 4 22 5 8 5 21 0 30 -5 9 -5 22 0 30 5 8 5 21 0 30 -5
9 -5 22 0 30 5 8 5 21 0 30 -5 9 -5 22 0 30 5 8 5 21 0 30 -5 9 -5 22 0 30 5
8 5 21 0 30 -5 9 -5 22 0 30 5 8 5 21 0 30 -5 9 -5 22 0 30 5 8 5 21 0 30 -5
9 -5 22 0 30 5 8 5 21 0 30 -5 9 -5 22 0 30 5 8 5 21 0 30 -5 9 -5 22 0 30 5
8 5 21 0 30 -5 9 -5 22 0 30 5 8 5 21 0 30 -5 9 -5 22 0 30 5 8 5 21 0 30 -5
9 -5 22 0 30 5 8 5 21 -1 31 -6 12 -5 20 1 24 6 4 8 10 5 15 -3 5 -8 34 -10
65 -15 171 -133 324 -300 390 -54 22 -90 28 -161 31 -51 2 -93 1 -96 -1z"/>
</g>
</svg>
